<svg t="1633402985416" class="icon" viewBox="0 0 1024 1024" version="1.1" xmlns="http://www.w3.org/2000/svg" p-id="1913" width="200" height="200"><path d="M1024 10.24l-251.634526 271.952842a8.030316 8.030316 0 0 0-1.994106 7.060211 49.205895 49.205895 0 0 1-83.644631 44.139789l-200.542316 200.488421 19.779368 264.946526L731.136 1024z m0 0" fill="#007FFF" p-id="1914"></path><path d="M1021.251368 17.084632L772.311579 286.127158a8.030316 8.030316 0 0 0-1.994105 7.114105 48.505263 48.505263 0 0 1-82.782316 43.600842L490.442105 533.935158a3.988211 3.988211 0 0 0-1.131789 3.072l19.456 260.203789L1010.741895 39.936l10.778947-22.743579z m0 0" fill="#0069FF" p-id="1915"></path><path d="M1013.813895 0.053895l-271.952842 251.580631a8.030316 8.030316 0 0 1-7.114106 2.048 49.205895 49.205895 0 0 0-44.085894 83.644632L490.118737 537.869474 225.28 517.928421 0 292.864z m0 0" fill="#00EED4" p-id="1916"></path><path d="M1006.969263 3.072L737.818947 252.011789a8.030316 8.030316 0 0 1-7.006315 1.994106 48.505263 48.505263 0 0 0-43.600843 82.782316L490.064842 533.881263a3.988211 3.988211 0 0 1-3.125895 1.13179l-260.203789-19.456L984.064 13.581474l22.743579-10.778948z m0 0" fill="#00D3B4" p-id="1917"></path></svg>